<svg width="128" height="129" viewBox="0 0 128 129" fill="none" xmlns="http://www.w3.org/2000/svg">
<rect y="0.25" width="128" height="128" rx="24" fill="none"/>
<g clip-path="url(#clip0_3992_22966)">
<path d="M92.6364 68.4604L92.5169 68.3409L92.3378 68.2215C90.9045 67.2659 89.3517 66.3104 87.5003 65.116C86.067 64.2201 84.5143 63.2646 82.6032 62.1896L79.7963 60.5771L80.0352 63.8021C80.0352 64.1604 80.0949 64.5785 80.0949 65.116C80.0949 67.4451 79.6769 69.7742 78.8408 71.9839L78.3033 73.2978L84.0962 76.8213C84.5143 77.2991 85.1115 78.1352 85.0518 79.1505C85.0518 79.1505 85.0518 79.3894 84.9323 79.7477C84.7532 80.4046 84.2754 81.4796 83.0212 82.5546C76.4519 86.7948 69.7034 90.617 63.0743 93.9016C57.9383 96.4697 54.9522 97.7238 52.0856 97.7238C51.7273 97.7238 51.3092 97.7238 50.8912 97.6641C45.6357 97.1266 41.6344 93.4239 39.2455 90.4378L38.4094 89.3628L35.3636 90.8559L35.8414 92.4683C35.9609 93.0058 36.1997 93.6628 36.4386 94.4989L36.5581 94.8572C36.9761 96.171 37.8122 98.9182 38.4692 100.411C40.7386 105.547 45.994 108.056 46.5913 108.354C48.7412 109.31 51.0106 109.788 53.3995 109.788C54.4745 109.788 55.5494 109.668 56.5647 109.489H56.6244H56.6842C57.6397 109.19 59.1924 108.772 60.9244 108.115C64.2688 106.861 66.2396 105.726 70.1214 103.457C71.3159 102.8 72.6297 102.024 74.2422 101.068C76.213 99.9335 77.1088 99.4557 77.9449 98.9779C78.9005 98.4405 79.7963 97.9627 81.8865 96.7683C85.0518 94.9766 88.0976 93.1253 90.8447 91.4531L90.9642 91.3933L91.0836 91.3336C92.3975 90.2586 96.6377 86.1976 96.8169 79.6282C97.1752 73.6561 93.7114 69.5951 92.6364 68.4604Z" fill="#FFD45E"/>
<path d="M108.582 48.2147C107.865 44.6912 106.193 41.7648 103.326 39.0774C99.0265 35.0163 85.9476 27.4914 77.2283 22.4748C75.3769 21.3999 73.7644 20.504 72.5103 19.7277L72.0325 19.4888H71.8534C70.1812 18.9513 68.4492 18.7124 66.7173 18.7124C66.1201 18.7124 65.5826 18.7124 64.9854 18.7721C62.5966 19.011 60.3869 19.7277 58.2966 20.8624H58.0577L57.6994 21.2207C56.6841 21.9374 55.1911 23.1915 53.8772 24.9831C52.9217 26.3567 52.1453 27.8498 51.6078 29.4025C51.4287 29.8803 51.3689 30.3581 51.3689 30.8358L51.0106 44.0342L53.6384 42.5412C55.9675 41.2273 58.5355 40.3912 61.223 40.1523L62.716 40.0329L62.9549 33.8219C63.0146 32.8066 63.4924 31.8511 64.2688 31.3136C64.6271 31.015 64.9854 30.8358 65.4035 30.7164C65.4632 30.7164 65.5826 30.6567 65.7618 30.6567C69.4645 30.6567 79.6768 37.4052 86.4851 41.8843C88.9336 43.4967 91.2628 44.9898 93.1141 46.1842L93.1739 46.2439L93.2336 46.3036C94.2488 47.1397 96.9363 49.648 98.071 52.9924C99.9821 58.8451 97.4141 64.3395 97.1155 64.9367C96.8766 65.4145 96.8169 66.0117 96.996 66.4894C97.1752 66.9672 97.5335 67.3853 97.9516 67.6241C98.2502 67.8033 98.5488 67.863 98.9071 67.863C99.4446 67.863 99.9821 67.6241 100.281 67.3255C106.85 60.8756 110.135 55.9785 108.582 48.2147Z" fill="#F75D5F"/>
<path d="M48.144 78.4338C45.576 77.2393 43.1871 75.4477 41.3358 73.1783L40.4399 72.0436L37.9914 73.4769C37.215 73.9547 36.3789 74.1338 35.4831 74.1338C34.0498 74.1338 32.6762 73.5366 31.7804 72.4616C31.1234 71.6853 30.8248 70.8492 30.8248 69.8339C30.8248 61.8313 31.1831 45.2287 31.1831 44.9898C31.1831 43.7357 31.3623 37.1664 36.6775 32.6873C39.9025 29.9401 43.6052 29.2831 45.5163 29.1637C46.5315 29.104 47.3676 28.2082 47.3676 27.1332C47.3676 26.2374 46.7704 25.4013 45.8746 25.2221C43.7246 24.6249 41.6941 24.2068 39.6636 23.9679C38.0511 23.7291 36.4386 23.6096 34.5873 23.6096H34.4081H34.2887C31.6609 24.0874 27.9582 25.2221 24.7332 28.3276C19.2389 33.5831 19.1194 40.5705 19.2389 42.6607L19 71.9839V72.0436C19.2389 74.4922 20.2541 79.0907 24.3152 82.7934C26.5846 84.8837 29.4512 86.2573 32.5567 86.7948H32.7359C33.3331 86.8545 33.99 86.9142 34.647 86.9142C35.0053 86.9142 35.3636 86.9142 35.722 86.9142C40.2011 86.6753 44.6204 84.7045 48.562 81.3004L50.5328 79.5685L48.144 78.4338Z" fill="#27CD85"/>
<path d="M62.4174 60.9353C66.359 60.9353 69.584 57.7701 69.584 53.8285C69.584 49.8869 66.359 46.7217 62.4174 46.7217C58.4758 46.7217 55.2509 49.8869 55.2509 53.8285C55.2509 57.7701 58.4758 60.9353 62.4174 60.9353Z" fill="#2777CD"/>
<path d="M66.1798 63.9214H58.7146C54.4147 63.9214 50.8314 67.4449 50.8314 71.7449C50.8314 72.7601 51.2495 73.656 52.1453 74.1337C53.4592 74.8504 56.4452 75.7462 62.4174 75.7462C68.3895 75.7462 71.3756 74.8504 72.6894 74.1337C73.4061 73.7157 74.0033 72.8199 74.0033 71.7449C74.063 67.3255 70.4797 63.9214 66.1798 63.9214Z" fill="#2777CD"/>
</g>
<defs>
<clipPath id="clip0_3992_22966">
<rect width="90" height="91.075" fill="white" transform="translate(19 18.7124)"/>
</clipPath>
</defs>
</svg>
